<?xml version="1.0" encoding="UTF-8"?>
<!DOCTYPE svg PUBLIC "-//W3C//DTD SVG 1.1//EN" "http://www.w3.org/Graphics/SVG/1.1/DTD/svg11.dtd">
<svg xmlns="http://www.w3.org/2000/svg" version="1.1" width="240px" height="240px" style="shape-rendering:geometricPrecision; text-rendering:geometricPrecision; image-rendering:optimizeQuality; fill-rule:evenodd; clip-rule:evenodd" xmlns:xlink="http://www.w3.org/1999/xlink">
<g><path style="opacity:0.984" fill="#00b9d8" d="M 173.5,71.5 C 173.511,73.0174 174.177,74.1841 175.5,75C 154.642,77.8533 133.976,81.0199 113.5,84.5C 103.522,76.837 92.522,75.0037 80.5,79C 75.162,81.6669 70.162,84.8336 65.5,88.5C 63.7094,88.0381 62.7094,86.8715 62.5,85C 72.4363,59.0149 91.4363,46.5149 119.5,47.5C 141.471,46.8234 159.471,54.8234 173.5,71.5 Z"/></g>
<g><path style="opacity:0.985" fill="#00b2d1" d="M 173.5,71.5 C 177.298,74.7961 180.964,78.2961 184.5,82C 188.602,85.0461 192.935,87.5461 197.5,89.5C 198.952,90.3019 200.618,90.8019 202.5,91C 178.628,94.1001 154.961,97.6001 131.5,101.5C 125.5,95.8333 119.5,90.1667 113.5,84.5C 133.976,81.0199 154.642,77.8533 175.5,75C 174.177,74.1841 173.511,73.0174 173.5,71.5 Z"/></g>
<g><path style="opacity:0.981" fill="#00adcb" d="M 131.5,101.5 C 154.961,97.6001 178.628,94.1001 202.5,91C 200.618,90.8019 198.952,90.3019 197.5,89.5C 207.058,91.422 216.058,89.922 224.5,85C 227.36,82.6397 230.36,80.473 233.5,78.5C 235.291,78.9619 236.291,80.1285 236.5,82C 229.367,103.241 214.7,115.574 192.5,119C 169.131,122.915 148.798,117.082 131.5,101.5 Z"/></g>
<g><path style="opacity:0.971" fill="#00abc8" d="M 102.5,133.5 C 71.6848,138.522 40.6848,143.189 9.5,147.5C 8.81654,147.137 8.14987,146.804 7.5,146.5C 15.948,131.255 28.948,122.421 46.5,120C 60.489,118.395 74.1556,119.728 87.5,124C 93.2088,126.24 98.2088,129.407 102.5,133.5 Z"/></g>
<g><path style="opacity:0.979" fill="#00a5c3" d="M 102.5,133.5 C 110.466,139.798 117.799,146.798 124.5,154.5C 103.187,157.331 81.8534,159.997 60.5,162.5C 42.8331,144.789 24.4998,144.122 5.5,160.5C 3.70943,160.038 2.70943,158.871 2.5,157C 3.52603,153.117 5.19269,149.617 7.5,146.5C 8.14987,146.804 8.81654,147.137 9.5,147.5C 40.6848,143.189 71.6848,138.522 102.5,133.5 Z"/></g>
<g><path style="opacity:0.979" fill="#00a0bd" d="M 172.5,163.5 C 140.209,168.113 107.875,172.446 75.5,176.5C 69.8714,172.539 64.8714,167.873 60.5,162.5C 81.8534,159.997 103.187,157.331 124.5,154.5C 141.764,165.992 158.097,164.658 173.5,150.5C 175.291,150.962 176.291,152.129 176.5,154C 175.572,157.353 174.239,160.52 172.5,163.5 Z"/></g>
<g><path style="opacity:0.961" fill="#009cb9" d="M 172.5,163.5 C 163.879,179.326 150.546,188.492 132.5,191C 115.234,193.714 98.9011,191.047 83.5,183C 80.5798,181.054 77.9131,178.887 75.5,176.5C 107.875,172.446 140.209,168.113 172.5,163.5 Z"/></g>
</svg>
