<?xml version="1.0" standalone="no"?>
<!DOCTYPE svg PUBLIC "-//W3C//DTD SVG 20010904//EN"
 "http://www.w3.org/TR/2001/REC-SVG-20010904/DTD/svg10.dtd">
<svg version="1.0" xmlns="http://www.w3.org/2000/svg"
 width="1000.000000pt" height="937.000000pt" viewBox="0 0 1000.000000 937.000000"
 preserveAspectRatio="xMidYMid meet">

<g transform="translate(0.000000,937.000000) scale(0.100000,-0.100000)"
fill="#915eff" stroke="none">
<path d="M4990 8221 c0 -19 -101 -161 -159 -223 -154 -165 -364 -275 -588
-308 -47 -6 -515 -10 -1360 -10 -1429 0 -1390 1 -1593 -66 -339 -113 -585
-359 -686 -689 l-28 -90 -6 -705 c-6 -681 -7 -708 -28 -782 -76 -274 -243
-499 -462 -625 l-67 -38 71 -41 c222 -131 383 -349 458 -622 21 -74 22 -101
28 -782 l6 -705 27 -89 c102 -330 348 -578 687 -690 203 -67 164 -66 1593 -66
845 0 1313 -4 1360 -10 224 -33 434 -143 588 -308 52 -55 142 -180 163 -225 5
-9 7 -9 12 0 21 45 111 170 163 225 154 165 364 275 588 308 47 6 511 10 1350
10 870 0 1307 4 1368 11 328 40 631 223 799 480 63 98 87 148 124 269 l26 85
6 705 c6 681 7 708 28 782 76 275 234 489 459 622 l72 43 -26 12 c-60 27 -167
108 -238 179 -138 138 -219 286 -276 502 -9 31 -14 257 -19 750 l-6 705 -28
90 c-53 173 -126 296 -252 422 -130 131 -301 231 -484 285 -164 48 -172 48
-1543 48 -845 0 -1313 4 -1360 10 -224 33 -434 143 -588 308 -58 62 -159 204
-159 223 0 5 -4 9 -10 9 -5 0 -10 -4 -10 -9z m141 -1463 c0 -43 0 -43 67 -75
88 -42 164 -118 205 -205 31 -66 33 -68 70 -68 l37 0 0 -130 0 -130 -39 0
c-38 0 -40 -1 -70 -66 -39 -82 -118 -161 -206 -205 -63 -31 -65 -33 -65 -70
l0 -39 -130 0 -130 0 0 39 c0 37 -2 39 -65 70 -88 44 -167 123 -206 205 -30
65 -32 66 -70 66 l-39 0 0 130 0 130 38 0 c37 0 39 2 62 58 32 78 143 188 222
223 57 24 58 24 58 67 l0 42 130 0 130 0 1 -42z m484 -1614 c342 -43 561 -120
733 -256 123 -98 234 -268 277 -423 26 -94 31 -330 10 -457 -75 -448 -404
-865 -863 -1093 -276 -137 -530 -192 -847 -182 -255 8 -409 47 -573 146 l-77
46 -63 -111 c-104 -182 -184 -255 -265 -240 -77 14 -166 154 -188 296 -12 81
-7 196 16 396 14 116 14 124 -5 179 -18 53 -19 60 -4 90 17 37 90 75 147 77
65 2 69 -12 32 -117 -13 -38 -25 -84 -25 -101 0 -45 70 -135 176 -229 l88 -77
18 39 c10 21 58 126 106 233 49 107 140 303 203 435 104 220 114 245 115 301
1 42 8 77 24 109 37 77 137 201 260 326 220 221 324 259 488 179 65 -33 92
-66 92 -114 0 -23 -2 -24 -29 -15 -114 40 -351 -171 -563 -501 -119 -185 -350
-602 -495 -893 l-88 -178 25 -19 c48 -38 206 -109 290 -132 118 -32 347 -31
497 0 311 67 651 258 898 506 326 328 495 745 431 1066 -43 219 -200 422 -402
524 -279 140 -694 161 -1184 62 -414 -84 -759 -231 -1041 -443 -208 -156 -314
-314 -326 -483 -5 -63 -2 -82 15 -115 38 -75 77 -101 229 -155 97 -34 119 -49
109 -75 -9 -24 -96 -19 -187 11 -148 49 -283 159 -309 252 -16 57 -12 245 6
316 29 113 89 212 189 312 226 227 585 383 1075 468 381 66 684 78 985 40z"/>
<path d="M4840 6554 c-42 -28 -91 -77 -106 -106 -18 -34 -18 -38 1 -38 13 0
15 -21 15 -130 0 -109 -2 -130 -15 -130 -24 0 -18 -15 31 -69 53 -59 104 -92
104 -66 0 13 20 15 130 15 110 0 130 -2 130 -15 0 -30 74 22 123 86 31 41 33
49 12 49 -13 0 -15 21 -15 130 0 109 2 130 15 130 19 0 19 4 1 39 -16 29 -81
92 -115 111 -18 9 -21 8 -21 -10 0 -19 -6 -20 -129 -20 -123 0 -130 1 -133 20
-3 20 -4 20 -28 4z"/>
<path d="M3900 3135 c0 -206 32 -416 64 -428 29 -11 87 78 146 226 l23 59
-116 116 -117 117 0 -90z"/>
</g>
</svg>
