<svg xmlns="http://www.w3.org/2000/svg" version="1.1" xmlns:xlink="http://www.w3.org/1999/xlink" xmlns:svgjs="http://svgjs.dev/svgjs" width="1000" height="937" viewBox="0 0 1000 937"><g transform="matrix(1,0,0,1,0,0)"><svg viewBox="0 0 384 360" data-background-color="#ffffff" preserveAspectRatio="xMidYMid meet" height="937" width="1000" xmlns="http://www.w3.org/2000/svg" xmlns:xlink="http://www.w3.org/1999/xlink"><g id="tight-bounds" transform="matrix(1,0,0,1,0,0)"><svg viewBox="0 0 384 360" height="360" width="384"><g><svg></svg></g><g><svg viewBox="0 0 384 360" height="360" width="384"><g><path xmlns="http://www.w3.org/2000/svg" d="M362.354 145.441v-42.24c0-21.12-19.163-38.402-42.587-38.402h-93.208c-15.198 0-28.337-8.831-34.559-21.646-6.222 12.81-19.36 21.646-34.559 21.646h-93.208c-23.424 0-42.587 17.282-42.587 38.402v42.24c0 15.198-8.831 28.337-21.646 34.559 12.81 6.222 21.646 19.36 21.646 34.559v42.24c0 21.12 19.163 38.402 42.587 38.402h93.208c15.198 0 28.337 8.831 34.559 21.646 6.222-12.81 19.36-21.646 34.559-21.646h93.208c23.424 0 42.587-17.282 42.587-38.402v-42.24c0-15.198 8.831-28.337 21.646-34.559-12.81-6.222-21.646-19.36-21.646-34.559z" fill="#000000" fill-rule="nonzero" stroke="none" stroke-width="1" stroke-linecap="butt" stroke-linejoin="miter" stroke-miterlimit="10" stroke-dasharray="" stroke-dashoffset="0" font-family="none" font-weight="none" font-size="none" text-anchor="none" style="mix-blend-mode: normal" data-fill-palette-color="tertiary"></path></g><g transform="matrix(1,0,0,1,149.1011448328443,99)"><svg viewBox="0 0 85.79771033431139 162" height="162" width="85.79771033431139"><g><svg viewBox="0 0 85.79771033431139 162" height="162" width="85.79771033431139"><g><svg viewBox="0 0 157.65254237288138 297.67358318644074" height="162" width="85.79771033431139"><g transform="matrix(1,0,0,1,0,135.6735831864407)"><svg viewBox="0 0 157.65254237288138 162" height="162" width="157.65254237288138"><g id="textblocktransform"><svg viewBox="0 0 157.65254237288138 162" height="162" width="157.65254237288138" id="textblock"><g><svg viewBox="0 0 157.65254237288138 162" height="162" width="157.65254237288138"><g transform="matrix(1,0,0,1,0,0)"><svg width="157.65254237288138" viewBox="3 -35.400001525878906 34.45000076293945 35.400001525878906" height="162" data-palette-color="#ffffff"><path d="M18.9 0L4 0 4-27.35 3-32.35 4-35.4 18.9-35.4Q22.5-35.4 25.83-34.73 29.15-34.05 31.78-32.2 34.4-30.35 35.93-26.9 37.45-23.45 37.45-17.95L37.45-17.95Q37.45-12.45 35.9-8.93 34.35-5.4 31.7-3.45 29.05-1.5 25.73-0.75 22.4 0 18.9 0L18.9 0ZM13.1-27.4L13.1-8 18.9-8Q23.3-8 25.65-10.33 28-12.65 28-17.95L28-17.95Q28-23.25 25.63-25.33 23.25-27.4 18.9-27.4L18.9-27.4 13.1-27.4Z" opacity="1" transform="matrix(1,0,0,1,0,0)" fill="#ffffff" class="wordmark-text-0" data-fill-palette-color="quaternary" id="text-0"></path></svg></g></svg></g></svg></g></svg></g><g transform="matrix(1,0,0,1,30.111635593220342,0)"><svg viewBox="0 0 97.4292711864407 97.4292711864407" height="97.4292711864407" width="97.4292711864407"><g><svg xmlns="http://www.w3.org/2000/svg" xmlns:xlink="http://www.w3.org/1999/xlink" version="1.1" x="0" y="0" viewBox="0 0 16 16" style="enable-background:new 0 0 16 16;" xml:space="preserve" height="97.4292711864407" width="97.4292711864407" class="icon-icon-0" data-fill-palette-color="quaternary" id="icon-0"><g fill="#ffffff" data-fill-palette-color="quaternary"><g fill="#ffffff" data-fill-palette-color="quaternary"><path d="M16 6h-1.294C14.034 3.743 12.257 1.966 10 1.294V0H6v1.294C3.743 1.966 1.966 3.743 1.294 6H0v4h1.294c0.672 2.257 2.45 4.034 4.706 4.706V16h4v-1.294c2.257-0.672 4.034-2.45 4.706-4.706H16V6zM10 12.576V12H6v0.576C4.851 12.072 3.928 11.149 3.424 10H4V6H3.424C3.928 4.851 4.851 3.928 6 3.424V4h4V3.424C11.149 3.928 12.072 4.851 12.576 6H12v4h0.576C12.072 11.149 11.149 12.072 10 12.576z" fill="#ffffff" data-fill-palette-color="quaternary"></path></g></g></svg></g></svg></g><g></g></svg></g></svg></g></svg></g></svg></g><defs></defs></svg><rect width="384" height="360" fill="none" stroke="none" visibility="hidden"></rect></g></svg></g></svg>